<svg width="138" height="140" viewBox="0 0 138 140" fill="none" xmlns="http://www.w3.org/2000/svg">
<circle cx="68.3541" cy="71.4101" r="62.3976" fill="#D9D9D9" stroke="black"/>
<path d="M68.46 8.61816C73.3854 8.02008 81.9731 9.37902 90.5459 12.5381C99.1164 15.6963 107.552 20.6102 112.244 27.0244L112.308 27.1123L112.402 27.165C114.425 28.3012 116.636 30.5438 118.822 33.5586C121.002 36.5636 123.13 40.2971 124.998 44.3672C128.739 52.5171 131.411 61.952 131.411 69.5166C131.411 70.1444 131.361 71.3514 131.312 72.4893C131.262 73.6101 131.212 74.6773 131.212 74.9893C131.212 89.02 124.142 100.46 123.502 101.463L123.486 101.488L123.474 101.515C123.077 102.334 120.241 108.007 114.871 114.169C109.5 120.333 101.62 126.957 91.1396 129.735L91.085 129.75L91.0352 129.776C83.5128 133.729 73.5308 134.823 64.7002 134.37C60.2917 134.144 56.1892 133.533 52.8496 132.711C49.4904 131.884 46.9642 130.857 45.6562 129.834L45.5479 129.749L45.4111 129.731L45.0205 129.674C43.0423 129.343 40.638 128.356 38.0469 126.918C35.2923 125.389 32.3644 123.371 29.5713 121.158C23.9685 116.719 18.9799 111.551 17.0137 108.036L16.999 108.01L16.9814 107.985L16.7109 107.596C15.7322 106.156 12.4787 101.193 10.4404 96.6797C7.86508 90.9751 5.40486 81.5434 5.52441 71.9932H5.58301L5.5459 71.459C5.48041 70.5063 5.4248 69.5552 5.4248 68.5977C5.42484 55.877 10.9753 45.3816 11.2559 44.8574L11.2617 44.8447L11.2695 44.8271C13.5701 40.571 16.2176 36.5116 19.1826 32.6885L19.1885 32.6807L19.1943 32.6719C25.3273 24.0593 30.3174 21.4286 31.4883 20.8994L31.5605 20.8662L31.6191 20.8135C38.5463 14.516 47.3497 11.451 54.6396 9.96973C61.9233 8.48984 67.6506 8.59949 68.3848 8.62109L68.4229 8.62207L68.46 8.61816ZM69.2051 129.598C66.4532 130.364 63.6666 130.789 61.0166 130.965L60.998 131.961C65.651 132.446 70.3411 132.466 74.998 132.021L75.0176 131.027C73.1361 130.773 71.2903 130.298 69.5195 129.613L69.3652 129.553L69.2051 129.598ZM51.2256 96.6504C41.2554 98.057 31.746 97.5835 28.3428 97.3369L27.9209 97.3066L27.8213 97.7178C27.1794 100.349 25.8396 106.899 26.9199 112.192L26.9307 112.249L26.9551 112.301C27.5713 113.638 28.8178 115.101 30.3633 116.565C31.9182 118.039 33.8153 119.55 35.7803 120.981C39.7106 123.844 43.946 126.411 46.3359 127.747L46.4004 127.783L46.4717 127.799C47.9962 128.136 58.6613 130.331 68.5586 127.603L68.7529 127.549L68.8555 127.375C69.6448 126.042 71.9206 121.678 73.168 114.366L73.2227 114.047L72.9531 113.867C71.2056 112.697 67.0221 109.851 62.7021 106.584C58.368 103.306 53.9457 99.6413 51.6846 96.832L51.5068 96.6113L51.2256 96.6504ZM86.4688 56.6797C79.7617 58.5881 62.4307 65.2383 58.5205 66.7471L58.2588 66.8486L58.208 67.125C56.0283 79.1685 53.684 91.938 53.1211 94.9961L53.0801 95.2168L53.2178 95.3936C55.368 98.1551 59.9688 101.913 64.3408 105.192C68.7311 108.485 72.9536 111.341 74.3975 112.305L74.582 112.428L74.7969 112.374C77.7509 111.632 90.6495 108.156 100.542 102.041L100.692 101.948L100.751 101.781C101.241 100.38 102.731 96.0113 104.093 90.9121C105.451 85.8263 106.698 79.9614 106.678 75.5879L106.677 75.3936L106.545 75.251L105.833 74.4883C98.4245 66.6136 89.3375 58.8104 86.9277 56.7783L86.7246 56.6074L86.4688 56.6797ZM122.367 62.7041C117.468 68.8204 111.048 73.8208 108.994 75.3525L108.793 75.5029V75.7529C108.793 80.1999 107.61 85.9472 106.263 91.042C104.918 96.126 103.422 100.517 102.817 102.235L102.729 102.485L102.887 102.698C104.02 104.228 107.029 108.184 110.127 111.399L110.364 111.646L110.68 111.514C115.282 109.587 119.993 104.347 123.486 97.499C126.99 90.6313 129.315 82.0608 129.082 73.3672L129.08 73.3008L129.061 73.2373L128.878 72.6602C128.282 70.8625 126.482 66.1078 123.115 62.667L122.72 62.2637L122.367 62.7041ZM8.64453 66.3545C8.19139 67.8823 7.85355 70.0258 7.7041 71.6406H7.6416L7.63574 72.1348C7.40525 90.666 18.06 105.891 18.6387 106.698L18.6562 106.723L18.6768 106.745C18.9012 106.99 20.9712 109.151 23.7832 110.604L24.5879 111.02L24.5107 110.117C24.0316 104.499 25.4243 98.5402 25.9502 96.5566L26.0068 96.3428L25.8857 96.1562C19.5263 86.3475 17.1259 73.8145 16.584 70.5039L16.543 70.252L16.3135 70.1377L15.6494 69.8027C13.949 68.9357 11.2847 67.496 9.42383 66.0967L8.84863 65.6641L8.64453 66.3545ZM31.3721 24.8184C29.1386 25.6643 26.917 27.3654 24.8477 29.4121C22.7726 31.4645 20.8201 33.8952 19.1299 36.2402C15.7495 40.9303 13.389 45.3182 13.1582 45.7549L13.1445 45.7803L13.1338 45.8076C12.9755 46.2169 12.0164 48.7415 11.0967 51.8379C10.1815 54.919 9.28613 58.6277 9.28613 61.3809C9.28613 62.2673 9.3834 62.8732 9.5 63.2861L9.53125 63.3975L9.6084 63.4834C10.1598 64.1005 11.283 64.8877 12.5498 65.6689C13.8358 66.4621 15.3297 67.2847 16.6738 67.9717L17.0898 68.1846L17.3301 67.7842C23.2689 57.901 31.8407 51.6347 34.2949 49.9727L34.501 49.833L34.5137 49.585C35.1036 38.5857 38.5973 30.5637 40.2207 27.3857L40.4668 26.9053L39.9678 26.6973C36.005 25.0449 32.5529 24.8125 31.5625 24.7861L31.4639 24.7832L31.3721 24.8184ZM113.437 31.6504C113.472 32.9133 113.38 34.0472 113.306 34.7363L113.285 34.9297L113.4 35.0859C121.148 45.633 123.16 57.3167 123.534 60.0293L123.56 60.2119L123.697 60.335C125.541 61.9729 127.006 63.9606 128.124 65.8799L129.054 65.5723C128.361 59.5005 126.252 52.5501 123.537 46.3213C120.825 40.0996 117.484 34.5432 114.294 31.2871L113.401 30.376L113.437 31.6504ZM67.6045 18.3398C65.6587 18.553 54.1198 20.0956 42.8135 27.126L42.7041 27.1934L42.6406 27.3057C41.703 28.9795 37.2754 37.5082 36.6094 49.6494L36.5947 49.9199L36.8135 50.0801C43.5745 55.0421 50.3885 59.9323 57.2539 64.749L57.4717 64.9023L57.7207 64.8057C61.6514 63.2881 78.8571 56.681 85.8184 54.6846L86.0996 54.6035L86.167 54.3184C88.6344 43.8133 89.18 34.2371 89.2822 31.7461L89.291 31.5293L89.1387 31.375C87.2771 29.4899 79.4489 22.1006 67.8125 18.3613L67.7109 18.3281L67.6045 18.3398ZM76.5674 11.0938C73.5432 10.8715 71.5311 11.2631 70.6328 11.5078L70.4072 11.5693L70.3096 11.7812C69.9854 12.4834 69.4232 13.9269 69.0557 16.1279L68.9863 16.5459L69.3867 16.6836C80.953 20.646 88.5648 27.7906 90.5947 29.8623L90.7588 30.0293L90.9912 30.0107C93.3341 29.8269 100.77 29.66 110.65 33.4521L111.305 33.7031L111.329 33.0029C111.357 32.212 111.343 31.3627 111.256 30.5781C111.17 29.803 111.007 29.0485 110.714 28.4736L110.697 28.4404L110.675 28.4102L110.33 27.9424C106.701 23.1397 101.018 19.3783 94.959 16.6084C88.6972 13.7459 81.985 11.9199 76.6064 11.0986L76.5869 11.0957L76.5674 11.0938Z" fill="black" stroke="black"/>
<path d="M78.1359 26.9194C77.7181 31.3753 77.425 39.2609 80.056 42.6174C80.056 42.6174 78.8174 33.9549 89.9203 23.0866C94.3908 18.7114 95.4241 12.7605 93.8631 8.29738C92.9763 5.769 91.3567 3.68033 89.9496 2.22193C89.1288 1.36448 89.7591 -0.0499428 90.9536 0.00135768C98.1797 0.323818 109.891 2.33186 114.867 14.8199C117.051 20.3017 117.212 25.9667 116.171 31.727C115.512 35.406 113.167 43.5848 118.517 44.5888C122.335 45.307 124.182 42.2729 125.01 40.089C125.354 39.1803 126.549 38.9531 127.194 39.6786C133.643 47.0146 134.193 55.655 132.859 63.0936C130.279 77.4724 115.717 87.9377 101.25 87.9377C83.178 87.9377 68.7918 77.597 65.0616 58.8796C63.5592 51.3238 64.3214 36.3734 75.9739 25.8201C76.8387 25.0287 78.2531 25.7322 78.1359 26.9194Z" fill="url(#paint0_radial_2199_582)"/>
<path d="M107.854 53.8082C101.192 45.2337 104.175 35.45 105.809 31.5512C106.029 31.0382 105.443 30.5545 104.981 30.8696C102.116 32.819 96.2454 37.4067 93.5118 43.8633C89.8108 52.5917 90.0746 56.8643 92.2659 62.0823C93.5851 65.2262 92.0534 65.8931 91.2839 66.0104C90.5364 66.1277 89.8475 65.6293 89.2978 65.109C87.7169 63.5907 86.5901 61.662 86.0439 59.5392C85.9266 59.0848 85.333 58.9603 85.0619 59.334C83.0098 62.1702 81.9472 66.7213 81.8959 69.9386C81.7347 79.8835 89.9501 87.945 99.8877 87.945C112.412 87.945 121.536 74.0939 114.34 62.5147C112.251 59.1435 110.287 56.9376 107.854 53.8082Z" fill="url(#paint1_radial_2199_582)"/>
<defs>
<radialGradient id="paint0_radial_2199_582" cx="0" cy="0" r="1" gradientTransform="matrix(-51.7306 -0.224511 -0.368839 84.8797 97.6709 88.1655)" gradientUnits="userSpaceOnUse">
<stop offset="0.314" stop-color="#FF9800"/>
<stop offset="0.662" stop-color="#FF6D00"/>
<stop offset="0.972" stop-color="#F44336"/>
</radialGradient>
<radialGradient id="paint1_radial_2199_582" cx="0" cy="0" r="1" gradientTransform="matrix(-0.546706 54.1239 40.7323 0.411383 100.577 36.6873)" gradientUnits="userSpaceOnUse">
<stop offset="0.214" stop-color="#FFF176"/>
<stop offset="0.328" stop-color="#FFF27D"/>
<stop offset="0.487" stop-color="#FFF48F"/>
<stop offset="0.672" stop-color="#FFF7AD"/>
<stop offset="0.793" stop-color="#FFF9C4"/>
<stop offset="0.822" stop-color="#FFF8BD" stop-opacity="0.804"/>
<stop offset="0.863" stop-color="#FFF6AB" stop-opacity="0.529"/>
<stop offset="0.91" stop-color="#FFF38D" stop-opacity="0.209"/>
<stop offset="0.941" stop-color="#FFF176" stop-opacity="0"/>
</radialGradient>
</defs>
</svg>
